<svg xmlns="http://www.w3.org/2000/svg" width="24" height="24" viewBox="0 0 24 24">
    <g fill="none" fill-rule="evenodd">
        <g fill="#002D63">
            <g>
                <g>
                    <path d="M11.998 2l.118.007c.118.013.234.048.343.104l.105.062.097.076.263.225c2.02 1.676 4.573 2.576 7.198 2.537l.343-.01c.46-.021.876.275 1.007.717.994 3.377.574 7.013-1.164 10.076-1.738 3.062-4.645 5.29-8.057 6.174-.164.043-.338.043-.502 0-3.412-.884-6.32-3.112-8.057-6.174C1.954 12.73 1.534 9.095 2.528 5.718c.13-.442.546-.738 1.007-.717 2.745.126 5.434-.778 7.541-2.527l.263-.225.097-.075c.068-.047.141-.084.216-.112l.113-.034c.04-.01.08-.017.119-.021L11.998 2zM12 4.295l-.177.136C9.71 6.007 7.163 6.905 4.526 7.003l-.264.006-.064.31c-.466 2.436-.095 4.967 1.065 7.175l.171.314c1.416 2.495 3.75 4.336 6.498 5.136l.068.019.068-.019c2.643-.77 4.902-2.5 6.33-4.851l.168-.285c1.294-2.281 1.724-4.937 1.236-7.489l-.065-.31-.263-.006c-2.637-.098-5.183-.996-7.297-2.572L12 4.295zm-.11 4.158l.13.083.128-.08c.59-.346 1.284-.501 1.983-.429l.21.029c1.19.202 2.168 1.044 2.53 2.186.364 1.145.045 2.394-.823 3.232l-.023.02-3.31 3.222c-.358.35-.914.376-1.304.08l-.093-.08-3.338-3.251-.14-.142c-.762-.832-1.029-2.005-.687-3.087.363-1.146 1.345-1.99 2.54-2.191.77-.13 1.548.024 2.197.408zm-1.866 1.564c-.456.077-.826.395-.961.821-.12.38-.036.79.219 1.095l.098.104 2.636 2.566 2.651-2.579.09-.097c.245-.303.324-.707.205-1.08-.134-.425-.503-.742-.957-.82-.411-.07-.826.07-1.105.36l-.088.102c-.375.49-1.091.522-1.51.094l-.084-.098c-.274-.362-.736-.544-1.194-.468z" transform="translate(-32 -1114) translate(16 1090) translate(16 24)"/>
                </g>
            </g>
        </g>
    </g>
</svg>
