<svg xmlns="http://www.w3.org/2000/svg" width="24" height="24" viewBox="0 0 24 24">
    <g fill="none" fill-rule="evenodd">
        <g fill="#002D63">
            <g>
                <g>
                    <path d="M11.985 2l.118.007c.118.013.234.048.342.104l.105.062.097.076.263.225c2.017 1.676 4.567 2.576 7.19 2.537l.341-.01c.46-.021.876.275 1.006.717.992 3.377.573 7.013-1.162 10.076-1.736 3.062-4.64 5.29-8.047 6.174-.164.043-.337.043-.502 0-3.407-.884-6.31-3.112-8.046-6.174C1.954 12.73 1.535 9.095 2.528 5.718c.13-.442.545-.738 1.005-.717 2.742.126 5.427-.778 7.532-2.527l.262-.225.097-.075c.068-.047.14-.084.216-.112l.112-.034c.04-.01.08-.017.12-.021L11.984 2zm.002 2.295l-.176.136C9.699 6.007 7.156 6.905 4.523 7.003l-.264.006-.063.31c-.466 2.436-.096 4.967 1.063 7.175l.17.314c1.415 2.495 3.745 4.336 6.49 5.136l.068.019.068-.019c2.64-.77 4.896-2.5 6.322-4.851l.168-.285c1.292-2.281 1.722-4.937 1.234-7.489l-.065-.31-.263-.006c-2.633-.098-5.175-.996-7.287-2.572l-.177-.136zM12 7c1.657 0 3 1.343 3 3 0 .864-.365 1.643-.95 2.19 1.087.405 1.875 1.423 1.945 2.634L16 15v1c0 .552-.448 1-1 1-.513 0-.936-.386-.993-.883L14 16v-1c0-.513-.386-.936-.883-.993L13 14h-2c-.513 0-.936.386-.993.883L10 15v1c0 .552-.448 1-1 1-.513 0-.936-.386-.993-.883L8 16v-1c0-1.287.81-2.385 1.95-2.811C9.365 11.643 9 10.864 9 10c0-1.657 1.343-3 3-3zm0 2c-.552 0-1 .448-1 1s.448 1 1 1 1-.448 1-1-.448-1-1-1z" transform="translate(-32 -902) translate(16 878) translate(16 24)"/>
                </g>
            </g>
        </g>
    </g>
</svg>
