<?xml version="1.0" encoding="UTF-8"?>
<svg width="36px" height="36px" viewBox="0 0 36 36" version="1.1" xmlns="http://www.w3.org/2000/svg" xmlns:xlink="http://www.w3.org/1999/xlink" id="touchGrey">
    <title>03 Large: 36px/Hero/Top-up</title>
    <g id="03-Large:-36px/Hero/Top-up" stroke="none" stroke-width="1" fill="none" fill-rule="evenodd">
        <path d="M14,3 C14.5522847,3 15,3.44771525 15,4 C15,4.51283584 14.6139598,4.93550716 14.1166211,4.99327227 L14,5 L11,5 C8.85780461,5 7.10892112,6.68396847 7.00489531,8.80035966 L7,9 L7,27 C7,29.1421954 8.68396847,30.8910789 10.8003597,30.9951047 L11,31 L20,31 C22.1421954,31 23.8910789,29.3160315 23.9951047,27.1996403 L24,27 L24,23 C24,22.4477153 24.4477153,22 25,22 C25.5128358,22 25.9355072,22.3860402 25.9932723,22.8833789 L26,23 L26,27 C26,30.2383969 23.4344251,32.8775718 20.2249383,32.9958615 L20,33 L11,33 C7.76160306,33 5.12242824,30.4344251 5.00413847,27.2249383 L5,27 L5,9 C5,5.76160306 7.56557489,3.12242824 10.7750617,3.00413847 L11,3 L14,3 Z M15.4990099,26 C16.3277228,26 17,26.6720554 17,27.5004949 C17,28.3289343 16.3277228,29 15.4990099,29 C14.670297,29 14,28.3289343 14,27.5004949 C14,26.6720554 14.670297,26 15.4990099,26 Z M24.0010281,2 C28.9712684,2 33,6.02899048 33,10.9994859 C33,15.9708307 28.9714473,20 24.0010281,20 C19.0296033,20 15,15.9708531 15,10.9994859 C15,6.028968 19.0297822,2 24.0010281,2 Z M24.0010281,4 C20.1342612,4 17,7.13362798 17,10.9994859 C17,14.8662329 20.1341221,18 24.0010281,18 C27.8668092,18 31,14.8663297 31,10.9994859 C31,7.13353121 27.8666701,4 24.0010281,4 Z" id="🌈--Icon-color" fill="#EEEEEE"></path>
        <path d="M24,6 C24.5128358,6 24.9355072,6.38604019 24.9932723,6.88337887 L25,7 L25,10 L28,10 C28.5522847,10 29,10.4477153 29,11 C29,11.5128358 28.6139598,11.9355072 28.1166211,11.9932723 L28,12 L25,12 L25,15 C25,15.5522847 24.5522847,16 24,16 C23.4871642,16 23.0644928,15.6139598 23.0067277,15.1166211 L23,15 L23,12 L20,12 C19.4477153,12 19,11.5522847 19,11 C19,10.4871642 19.3860402,10.0644928 19.8833789,10.0067277 L20,10 L23,10 L23,7 C23,6.44771525 23.4477153,6 24,6 Z" id="Path" fill="#EEEEEE"></path>
    </g>
</svg>