<?xml version="1.0" encoding="UTF-8"?>
<svg width="36px" height="36px" viewBox="0 0 36 36" version="1.1" xmlns="http://www.w3.org/2000/svg" xmlns:xlink="http://www.w3.org/1999/xlink" id="TSPGrey">
    <title>03 Large: 36px/Mono/Product/Smart port</title>
    <g id="03-Large:-36px/Mono/Product/Smart-port" stroke="none" stroke-width="1" fill="none" fill-rule="evenodd">
        <path d="M15.8485407,4.01140462 C9.74516983,4.93122747 4.93096413,9.74526192 4.01188815,15.8484686 C3.92060582,16.4546371 4.39011221,17 5.0032488,17 L12.5116659,17 C12.9342679,17 13.3114897,16.7350536 13.4547969,16.3375802 C13.9355279,15.0042365 14.9976414,13.945743 16.3390922,13.4604538 C16.736057,13.316846 17.0005085,12.9400078 17.0005085,12.5179485 L17.0005085,5.00251735 C17.0005085,4.38944401 16.4549003,3.92002178 15.8485407,4.01140462 Z M14.9952805,6.2249735 L14.9952805,11.8549483 L14.9025453,11.9009379 C13.6046655,12.5563468 12.5469763,13.6111136 11.8928444,14.9054929 L11.8493312,14.9951853 L6.22511962,14.9951853 L6.23480382,14.9597936 C7.2990378,10.7904782 10.5241313,7.48971657 14.6492408,6.3178337 L14.9952805,6.2249735 Z M20.0395435,4.00074043 L20.1523994,4.01140462 C26.2552769,4.93120437 31.0692855,9.74508456 31.9890978,15.8483448 C32.0804583,16.4545518 31.610964,17 30.997811,17 L30.997811,17 L23.4898123,17 C23.0673792,17 22.6902756,16.7352332 22.5468684,16.3379533 C22.065437,15.0042471 21.0031879,13.94572 19.6618753,13.4604538 C19.2649325,13.316846 19.0004958,12.9400078 19.0004958,12.5179485 L19.0004958,12.5179485 L19.0004958,5.00251735 C19.0004958,4.38944401 19.5460736,3.92002178 20.1523994,4.01140462 Z M27.3649096,10.2474775 L23.5328653,13.9662659 C23.7489471,14.2619551 23.9416118,14.5757946 24.1081715,14.9051541 L24.1081715,14.9051541 L24.150974,14.9951853 L25.464,14.995 L28.492832,11.8597315 C28.160265,11.2910721 27.7826651,10.7520289 27.3649096,10.2474775 Z M29.4067498,13.8000159 L28.251,14.995 L29.7748722,14.9951853 L29.68231,14.6488173 C29.6006508,14.3613705 29.5086553,14.0782946 29.4067498,13.8000159 Z M24.3337368,7.62272758 L21.005,10.84 L21.0051999,11.8559506 L21.0982588,11.9008955 C21.4599348,12.083539 21.8029676,12.2972 22.1238254,12.5384224 L25.9647237,8.81490852 C25.4564352,8.37407991 24.9110093,7.97492324 24.3337368,7.62272758 Z M21.0051999,6.2249735 L21.005,8.052 L22.4260872,6.6786308 C22.0781146,6.54321811 21.7223139,6.42341683 21.3595434,6.3200849 L21.0405815,6.23394999 L21.0051999,6.2249735 Z M12.6350489,18.9998458 C13.0636695,18.9998458 13.4462934,19.2614156 13.5917853,19.653891 C14.2837379,21.5204847 16.1011016,22.788455 18.1672561,22.788455 C18.4306201,22.788455 18.7037586,22.7639224 18.9935644,22.7159434 C19.4128922,22.6465212 19.8323133,22.8384335 20.0449734,23.1970311 L20.0449734,23.1970311 L23.8633791,29.6358074 C24.1749851,30.1612521 23.9322711,30.8334509 23.351471,31.0535415 C21.709011,31.6759415 19.9597226,31.9998458 18.1672561,31.9998458 C11.0572365,31.9998458 5.06192215,26.9222172 4.01156785,20.1375401 C3.91885768,19.5386864 4.39521511,18.9998458 5.01733685,18.9998458 L5.01733685,18.9998458 Z M11.9615529,20.9793465 L6.25750783,20.9793465 L6.34160902,21.2888914 C7.77586103,26.2758464 12.4092201,29.8839019 17.8579809,30.0158234 L17.8579809,30.0158234 L18.1672561,30.019564 C19.2441202,30.019564 20.3017861,29.8835417 21.322653,29.6188283 L21.322653,29.6188283 L21.477788,29.5747597 L18.6176284,24.7507932 L18.4554639,24.7622881 L18.1672561,24.7687368 C15.50241,24.7687368 13.1301557,23.2826441 11.9843326,21.0256068 L11.9843326,21.0256068 L11.9615529,20.9793465 Z M30.0520974,18.9998458 C30.6320245,18.9998458 31.0760918,19.5293283 30.9897259,20.1178246 C30.4857786,23.5517135 28.722983,26.6348171 26.0927148,28.7874104 C25.6392873,29.1584924 24.9703691,29.0286247 24.6803687,28.5132094 L24.6803687,28.5132094 L21.1275596,22.1988313 C20.9267951,21.8420142 20.9667812,21.3941157 21.2273829,21.0806754 C21.5996848,20.6328868 21.8802379,20.1510437 22.0584859,19.6431734 C22.1939603,19.2571752 22.5507988,18.9998458 22.9505881,18.9998458 L22.9505881,18.9998458 Z M28.8938155,20.9450668 L23.5734517,20.9450668 L23.4940113,21.1087323 C23.4039558,21.28265 23.305691,21.4530106 23.19956,21.6196497 L23.19956,21.6196497 L23.0860757,21.7887137 L25.7438871,26.5109961 L25.8990344,26.3576 C27.2988581,24.9158829 28.3158661,23.1295016 28.8396015,21.1634799 L28.8396015,21.1634799 L28.8938155,20.9450668 Z" id="🌈--Icon-color" fill="#EEEEEE"></path>
    </g>
</svg>