<?xml version="1.0" encoding="UTF-8"?>
<svg width="36px" height="36px" viewBox="0 0 36 36" version="1.1" xmlns="http://www.w3.org/2000/svg" xmlns:xlink="http://www.w3.org/1999/xlink" id="healthba">
    <title>03 Large: 36px/Mono/Product/Other Insurance</title>
    <g id="03-Large:-36px/Mono/Product/Other-Insurance" stroke="none" stroke-width="1" fill="none" fill-rule="evenodd">
        <polygon id="Path" points="0 0 36 0 36 36 0 36"></polygon>
        <path d="M29.5,26 C30.0128358,26 30.4355072,26.3860402 30.4932723,26.8833789 L30.5,27 L30.5,30 C30.5,31.0543618 29.6841222,31.9181651 28.6492623,31.9945143 L28.5,32 L22.5,32 C21.4456382,32 20.5818349,31.1841222 20.5054857,30.1492623 L20.5,30 L20.5,27 C20.5,26.4477153 20.9477153,26 21.5,26 C22.0128358,26 22.4355072,26.3860402 22.4932723,26.8833789 L22.5,27 L22.5,30 L28.5,30 L28.5,27 C28.5,26.4477153 28.9477153,26 29.5,26 Z M16.7307692,16 C17.2436051,16 17.6662764,16.3901325 17.7240415,16.8927433 L17.7307692,17.0106007 L17.7307692,24.4694773 C17.7307692,25.8838215 16.5444863,27 15.1153846,27 C13.6862829,27 12.5,25.8838215 12.5,24.4694773 C12.5,23.9113379 12.9477153,23.4588766 13.5,23.4588766 C14.0128358,23.4588766 14.4355072,23.8490091 14.4932723,24.3516199 L14.5,24.4694773 C14.5,24.7339925 14.7601817,24.9787986 15.1153846,24.9787986 C15.4350672,24.9787986 15.6777827,24.7805057 15.7231289,24.5480155 L15.7307692,24.4694773 L15.7307692,17.0106007 C15.7307692,16.4524613 16.1784845,16 16.7307692,16 Z M26.6960565,19.4276774 L26.8234455,19.5412792 L31.6973408,24.2832603 C32.0931852,24.668391 32.1018704,25.3014964 31.7167397,25.6973408 C31.3612344,26.0627356 30.7944371,26.0982433 30.3979988,25.7986282 L30.3026592,25.7167397 L25.4999994,21.044 L20.6973408,25.7167397 C20.331946,26.072245 19.7643879,26.0921911 19.3763177,25.7818138 L19.2832603,25.6973408 C18.927755,25.331946 18.9078089,24.7643879 19.2181862,24.3763177 L19.3026592,24.2832603 L24.1765546,19.5412791 C24.8771267,18.8596684 25.9537058,18.8218011 26.6960565,19.4276774 Z M16.5,3 C17.0128358,3 17.4355072,3.48177816 17.4932723,4.10245684 L17.5,4.248 L17.5,4.752 C17.5,4.85113642 17.4907378,4.94757304 17.4732345,5.0400356 C23.3103636,5.51482891 27.9133362,10.2262536 27.9999894,16.0119449 C28.012772,16.8742737 26.9488205,17.3245018 26.30733,16.7281718 C25.5180981,15.9945012 24.4781733,15.5786924 23.3701929,15.5786924 C22.3359989,15.5786924 21.3612402,15.940495 20.5901023,16.5889181 C20.2141001,16.9050854 19.6560821,16.9050854 19.28008,16.5889181 C18.5089421,15.940495 17.5341834,15.5786924 16.4999894,15.5786924 C15.4657954,15.5786924 14.4910367,15.940495 13.7198988,16.5889181 C13.3438966,16.9050854 12.7858786,16.9050854 12.4098765,16.5889181 C11.6387386,15.940495 10.6639799,15.5786924 9.62978588,15.5786924 C8.52180551,15.5786924 7.48188071,15.9945012 6.69264881,16.7281718 C6.05115832,17.3245018 4.98720678,16.8742737 4.99998939,16.0119449 C5.08664612,10.2260158 9.68999356,5.51444161 15.5273,5.0394079 C15.5179013,4.99311462 15.511214,4.9457478 15.5067277,4.89754316 L15.5,4.752 L15.5,4.248 C15.5,3.55874863 15.9477153,3 16.5,3 Z M16.4999894,6.943788 C12.128517,6.943788 8.44241121,9.81368823 7.3379711,13.7273149 L7.26962209,13.9840124 L7.24257299,14.0958064 L7.42173354,14.0266128 C7.92866432,13.840015 8.46245854,13.7172739 9.011803,13.6644762 L9.34318521,13.6412395 L9.62978588,13.6349044 C10.7628814,13.6349044 11.8498307,13.9310153 12.797925,14.4749211 L13.0529838,14.6293664 L13.0646567,14.6361795 L13.3336587,14.4738841 C14.1052967,14.031547 14.9688398,13.7533101 15.8743347,13.6652068 L16.2157642,13.6411314 L16.4999894,13.6349044 C17.6330849,13.6349044 18.7200342,13.9310153 19.6681285,14.4749211 L19.9231873,14.6293664 L19.9344753,14.6361795 L20.2038622,14.4738841 C20.9755002,14.031547 21.8390433,13.7533101 22.7445382,13.6652068 L23.0859677,13.6411314 L23.3701929,13.6349044 C24.0276973,13.6349044 24.6695204,13.734678 25.2772858,13.924338 L25.5782452,14.0266128 L25.756559,14.0967783 L25.7303567,13.9840124 C24.7597486,10.1084802 21.2745935,7.19550204 17.054918,6.95927877 L16.7725377,6.94751492 L16.4999894,6.943788 Z" id="🌈--Icon-color" fill="#002D63"></path>
    </g>
</svg>