<?xml version="1.0" encoding="UTF-8"?>
<svg width="36px" height="36px" viewBox="0 0 36 36" version="1.1" xmlns="http://www.w3.org/2000/svg" xmlns:xlink="http://www.w3.org/1999/xlink" id="nofixedgrey">
    <title>03 Large: 36px/Mono/Product/No Fixed</title>
    <g id="03-Large:-36px/Mono/Product/No-Fixed" stroke="none" stroke-width="1" fill="none" fill-rule="evenodd">
        <polygon id="Path" points="0 0 36 0 36 36 0 36"></polygon>
        <g id="03-Large:-36px/Product/No-fixed" transform="translate(3.000001, 3.000000)" fill="#002D63">
            <path d="M23.2322425,8.17200228 C23.6394129,8.27498456 23.9347082,8.61942369 23.9808685,9.02893871 L23.9871776,9.14210556 L23.9866642,9.93592973 L23.9830624,11.0014095 L23.9745564,11.845 L24.1392181,11.97963 C25.4336961,13.0733817 26.4250134,14.3856396 27.0358526,15.8307547 L27.1700262,16.1665622 L27.2384028,16.359 L27.9843502,16.3584606 C28.4528019,16.3581005 28.8529752,16.68153 28.9584285,17.1276053 L28.9785208,17.2415629 L28.987082,17.348946 L28.996929,17.7246304 L28.9999991,19.2764049 L28.9853786,22.4150762 C28.9853786,22.9277836 28.5994243,23.3503964 28.102094,23.4083103 L27.9854733,23.4150761 L26.6562518,23.415 L26.5254486,23.6238392 C26.1567052,24.1877682 25.650723,24.8194964 25.065567,25.4757909 L24.8101078,25.758438 L24.5877154,25.998 L24.5822045,26.3224808 L24.5804153,27.156519 L24.6119529,30 C24.6119529,30.5128358 24.2258126,30.9355072 23.7283449,30.9932723 L23.6116935,31 L19.2382679,31 C18.6858399,31 18.2380085,30.5522847 18.2380085,30 C18.2380085,29.8549015 18.2520663,29.7180461 18.2825421,29.5563148 L18.3185779,29.3850649 L18.3260915,29.351 L17.9966138,29.4243078 C17.319992,29.5616409 16.6278793,29.6543246 15.9254876,29.7008545 L15.3968479,29.7270747 L14.8648422,29.735846 C13.9756325,29.735846 13.0984119,29.6625553 12.24336,29.5189123 L11.7330706,29.4243078 L11.4032962,29.351 L11.4451233,29.5387608 C11.4631084,29.6295811 11.4750573,29.7088767 11.4823418,29.7866164 L11.4899419,29.9033051 L11.4916759,30 C11.4916759,30.5128358 11.1055356,30.9355072 10.6080679,30.9932723 L10.4914165,31 L6.11799086,31 C5.60502199,31 5.18224102,30.6139598 5.12446093,30.1166211 L5.11773146,30 L5.11640142,29.9551569 L5.09688138,29.7299854 L5.01581042,29.0758669 L4.91114451,28.3295918 L4.4744993,25.45 L4.23107184,25.1699239 C2.94120397,23.6334261 2.16956565,21.8354284 2.02046301,19.934846 L1.99982707,19.5773235 L1.99385598,19.2546913 C1.99385598,18.426079 2.11056669,17.6217343 2.33103066,16.8514332 C0.176374784,16.1412011 -0.499341665,14.2547982 0.365511455,11.6814981 C0.541460811,11.1579751 1.10860528,10.876174 1.63226407,11.0520778 C2.15592287,11.2279815 2.43779706,11.7949789 2.26184771,12.3185019 C1.70883013,13.9639607 1.96476885,14.6797211 3.0955576,14.9936979 C5.10457483,11.3090529 9.64032117,8.77353649 14.8648422,8.77353649 C15.6105828,8.77353649 16.3484299,8.82506638 17.07266,8.92672415 L17.61319,9.01234455 L17.6428964,9.01684085 L17.7052766,9.02032943 L17.7222776,9.01982246 L17.740111,9.01868416 L17.82247,9.00702062 L17.9289513,8.98206788 L18.0681976,8.94127571 L18.2488513,8.88209388 L19.4338754,8.45956532 C20.8476521,7.97521122 21.932033,7.84315093 23.2322425,8.17200228 Z M21.9151009,9.99636979 C21.366609,9.98586314 20.8011396,10.1059729 20.0867825,10.3501024 L19.8116619,10.4474515 L19.406755,10.5972743 L18.9143376,10.7730701 L18.6375499,10.8596682 C18.1297342,11.0065842 17.6980602,11.0582971 17.2651927,10.9818523 C16.4838098,10.8438594 15.6804114,10.7735365 14.8648422,10.7735365 C8.81811359,10.7735365 3.99437478,14.6262588 3.99437478,19.2546913 C3.99437478,21.0930364 4.75074801,22.8499306 6.14388825,24.3087862 C6.2621347,24.4326104 6.34610121,24.5841598 6.38869549,24.7485266 L6.41277309,24.873972 L6.90119326,28.1112185 L7.02316026,28.999 L9.24873743,28.999 L9.20514431,28.7939517 C9.1871735,28.6966484 9.17548423,28.6094548 9.16930168,28.5241017 L9.16406105,28.3964188 L9.1654253,28.2920926 C9.19610864,27.4143302 9.94041083,26.851587 10.8363764,27.1318437 C12.1061042,27.5290125 13.4664011,27.735846 14.8648422,27.735846 C16.2632833,27.735846 17.6235802,27.5290125 18.893308,27.1318437 C19.751584,26.8633763 20.5022965,27.3744936 20.5613441,28.2355932 C20.5716754,28.3862561 20.5656462,28.526054 20.5421217,28.6856492 L20.5127234,28.8529793 L20.47965,28.999 L22.5991997,28.999 L22.5920551,28.4668132 L22.5788591,26.8965785 L22.5830383,26.196165 L22.5936807,25.8035682 L22.6047724,25.6030039 L22.6193237,25.4501102 C22.6461548,25.2378055 22.7404005,25.0397047 22.8882086,24.8849244 L23.1802115,24.5746671 L23.4629202,24.2651827 L23.8210043,23.8583515 C24.4545042,23.1219687 24.9514241,22.4483256 25.1443267,22.0128351 C25.2862604,21.6924102 25.5838081,21.4726738 25.9251365,21.4267057 L26.0549685,21.4177558 L26.9893382,21.415 L26.9993408,18.361 L26.4497467,18.3728552 C26.0162538,18.3504479 25.6403761,18.0481071 25.5321202,17.6184093 C25.1011013,15.9075768 23.993301,14.338393 22.3668246,13.1252821 C22.1370861,12.9539311 21.993519,12.6936776 21.9685827,12.4120218 L21.9652534,12.2901986 L21.9734054,11.932017 L21.9850404,9.999 L21.9151009,9.99636979 Z M21.4999991,15 C22.3284262,15 22.9999991,15.6715729 22.9999991,16.5 C22.9999991,17.3284271 22.3284262,18 21.4999991,18 C20.671572,18 19.9999991,17.3284271 19.9999991,16.5 C19.9999991,15.6715729 20.671572,15 21.4999991,15 Z M12.9843167,0 C15.1940288,0 16.9853544,1.790861 16.9853544,4 C16.9853544,6.209139 15.1940288,8 12.9843167,8 C10.7746047,8 8.98327912,6.209139 8.98327912,4 C8.98327912,1.790861 10.7746047,0 12.9843167,0 Z M12.9843167,2 C11.8794607,2 10.9837979,2.8954305 10.9837979,4 C10.9837979,5.1045695 11.8794607,6 12.9843167,6 C14.0891728,6 14.9848355,5.1045695 14.9848355,4 C14.9848355,2.8954305 14.0891728,2 12.9843167,2 Z" id="🌈--Icon-color" fill="#eeeeee"></path>
        </g>
    </g>
</svg>