<?xml version="1.0" encoding="UTF-8"?>
<svg width="36px" height="36px" viewBox="0 0 36 36" version="1.1" xmlns="http://www.w3.org/2000/svg" xmlns:xlink="http://www.w3.org/1999/xlink" id="savingBA">
    <title>03 Large: 36px/Mono/Product/Current Account</title>
    <g id="03-Large:-36px/Mono/Product/Current-Account" stroke="none" stroke-width="1" fill="none" fill-rule="evenodd">
        <polygon id="Path" points="0 0 36 0 36 36 0 36"></polygon>
        <path d="M30,24.5 C30,25.544 27.718,27 24,27 C22.354,27 21.01,26.707 20,26.298 L20,24.432 C21.164,24.794 22.521,25 24,25 C26.442,25 28.557,24.441 30,23.532 L30,24.5 Z M12,30 C8.282,30 6,28.544 6,27.5 L6,27 L6,26.532 C7.443,27.441 9.558,28 12,28 C14.036,28 15.846,27.612 17.229,26.957 C17.505,26.826 17.76,26.683 18,26.532 L18,27.5 C18,27.509 17.993,27.519 17.993,27.527 C17.955,28.569 15.687,30 12,30 L12,30 Z M12,13 C13.646,13 14.99,13.293 16,13.702 C16.11,13.746 16.231,13.787 16.333,13.834 C17.403,14.333 18,14.969 18,15.5 C18,15.509 17.993,15.519 17.993,15.527 C17.976,15.997 17.491,16.539 16.643,17 C16.479,17.089 16.303,17.173 16.111,17.254 C16.076,17.269 16.037,17.283 16,17.298 C14.99,17.707 13.646,18 12,18 C8.282,18 6,16.544 6,15.5 C6,14.456 8.282,13 12,13 L12,13 Z M18,11.532 C19.443,12.441 21.558,13 24,13 C26.442,13 28.557,12.441 30,11.532 L30,12.5 C30,13.544 27.718,15 24,15 C22.174,15 20.7,14.647 19.667,14.166 C19.335,13.521 18.759,12.946 18,12.468 L18,11.532 Z M20,20.432 C21.164,20.794 22.521,21 24,21 C26.442,21 28.557,20.441 30,19.532 L30,20.5 C30,21.544 27.718,23 24,23 C22.354,23 21.01,22.707 20,22.298 L20,20.432 Z M6,22.532 C7.443,23.441 9.558,24 12,24 C13.479,24 14.836,23.794 16,23.432 C16.439,23.295 16.851,23.136 17.229,22.957 C17.505,22.826 17.76,22.683 18,22.532 L18,23.5 C18,23.509 17.993,23.519 17.993,23.527 C17.973,24.087 17.295,24.751 16.111,25.254 C15.092,25.687 13.707,26 12,26 C8.282,26 6,24.544 6,23.5 L6,22.532 Z M18,18.532 L18,19.5 C18,19.509 17.993,19.519 17.993,19.527 C17.976,19.997 17.491,20.539 16.643,21 C16.479,21.089 16.303,21.173 16.111,21.254 C16.076,21.269 16.037,21.283 16,21.298 C14.99,21.707 13.646,22 12,22 C8.282,22 6,20.544 6,19.5 L6,18.532 C7.443,19.441 9.558,20 12,20 C13.479,20 14.836,19.794 16,19.432 C16.439,19.295 16.851,19.136 17.229,18.957 C17.505,18.826 17.76,18.683 18,18.532 L18,18.532 Z M20,16.432 C21.164,16.794 22.521,17 24,17 C26.442,17 28.557,16.441 30,15.532 L30,16.5 C30,17.544 27.718,19 24,19 C22.354,19 21.01,18.707 20,18.298 L20,16.432 Z M24,6 C27.718,6 30,7.456 30,8.5 C30,9.544 27.718,11 24,11 C20.282,11 18,9.544 18,8.5 C18,7.456 20.282,6 24,6 L24,6 Z M24,4 C19.564,4 16.182,5.832 16,8.293 L16,9 L16,11.568 C14.836,11.206 13.479,11 12,11 C7.547,11 4.157,12.846 4,15.321 L4,16 L4,19.5 L4,20 L4,23.5 L4,24 L4,27 L4,27.5 C4,30.065 7.439,32 12,32 C16.02,32 19.165,30.497 19.855,28.383 C21.051,28.775 22.459,29 24,29 C28.561,29 32,27.065 32,24.5 L32,23 L32,21 L32,20.5 L32,17 L32,16.5 L32,13 L32,12.5 L32,9 L32,8.5 C32,5.935 28.561,4 24,4 L24,4 Z" id="🌈--Icon-color" fill="#002D63"></path>
    </g>
</svg>