<?xml version="1.0" encoding="UTF-8"?>
<svg width="36px" height="36px" viewBox="0 0 36 36" version="1.1" xmlns="http://www.w3.org/2000/svg" xmlns:xlink="http://www.w3.org/1999/xlink" id="allfreelogo">
    <title>03 Large: 36px/Mono/Product/All Free</title>
    <g id="03-Large:-36px/Mono/Product/All-Free" stroke="none" stroke-width="1" fill="none" fill-rule="evenodd">
        <polygon id="Path" points="0 0 36 0 36 36 0 36"></polygon>
        <path d="M18,3 C26.2842712,3 33,9.71572875 33,18 C33,26.2842712 26.2842712,33 18,33 C9.71572875,33 3,26.2842712 3,18 C3,9.71572875 9.71572875,3 18,3 Z M18,5 C10.8202983,5 5,10.8202983 5,18 C5,25.1797017 10.8202983,31 18,31 C25.1797017,31 31,25.1797017 31,18 C31,10.8202983 25.1797017,5 18,5 Z M12.828,15 L12.828,15.992 L10.124,15.992 L10.124,17.192 L12.076,17.192 L12.076,18.168 L10.124,18.168 L10.124,20.6 L8.98,20.6 L8.98,15 L12.828,15 Z M15.932,15 L16.1464375,15.00675 C16.6338125,15.03825 17.0303333,15.18 17.336,15.432 C17.6853333,15.72 17.86,16.16 17.86,16.752 C17.86,17.1626667 17.7573333,17.5066667 17.552,17.784 C17.3466667,18.0613333 17.0493333,18.264 16.66,18.392 L16.66,18.392 L17.996,20.6 L16.652,20.6 L15.492,18.544 L14.572,18.544 L14.572,20.6 L13.428,20.6 L13.428,15 L15.932,15 Z M22.524,15 L22.524,15.992 L19.828,15.992 L19.828,17.272 L21.772,17.272 L21.772,18.248 L19.828,18.248 L19.828,19.608 L22.628,19.608 L22.628,20.6 L18.676,20.6 L18.676,15 L22.524,15 Z M27.156,15 L27.156,15.992 L24.46,15.992 L24.46,17.272 L26.404,17.272 L26.404,18.248 L24.46,18.248 L24.46,19.608 L27.26,19.608 L27.26,20.6 L23.308,20.6 L23.308,15 L27.156,15 Z M15.932,15.992 L14.572,15.992 L14.572,17.552 L15.892,17.552 C16.4253333,17.552 16.692,17.2853333 16.692,16.752 C16.692,16.2453333 16.4386667,15.992 15.932,15.992 L15.932,15.992 Z" id="🌈--Icon-color" fill="#002D63"></path>
    </g>
</svg>