<?xml version="1.0" encoding="UTF-8"?>
<svg width="36px" height="36px" viewBox="0 0 36 36" version="1.1" xmlns="http://www.w3.org/2000/svg" xmlns:xlink="http://www.w3.org/1999/xlink" id="MF">
    <title>03 Large: 36px/Mono/Product/Fund by Fund</title>
    <g id="03-Large:-36px/Mono/Product/Fund-by-Fund" stroke="none" stroke-width="1" fill="none" fill-rule="evenodd">
        <polygon id="Path" points="0 0 36 0 36 36 0 36"></polygon>
        <path d="M7,5 C7.51283584,5 7.93550716,5.38604019 7.99327227,5.88337887 L8,6 L8,27 C8,27.5128358 8.38604019,27.9355072 8.88337887,27.9932723 L9,28 L30,28 C30.5522847,28 31,28.4477153 31,29 C31,29.5128358 30.6139598,29.9355072 30.1166211,29.9932723 L30,30 L9,30 C7.40231912,30 6.09633912,28.75108 6.00509269,27.1762728 L6,27 L6,6 C6,5.44771525 6.44771525,5 7,5 Z M31,10 L31,15 C31,15.5522847 30.5522847,16 30,16 C29.4871642,16 29.0644928,15.6139598 29.0067277,15.1166211 L29,15 L29,13.414 L21.7071068,20.7071068 C21.3466228,21.0675907 20.7793918,21.0953203 20.3871006,20.7902954 L20.2928932,20.7071068 L16.942,17.357 L11.1459422,22.2633863 C10.7567669,22.5926885 10.1891924,22.5732163 9.8235872,22.236667 L9.73661371,22.1459422 C9.40731152,21.7567669 9.42678374,21.1891924 9.76333301,20.8235872 L9.85405776,20.7366137 L16.3540578,15.2366137 C16.7180006,14.9286621 17.2426329,14.9235598 17.6108117,15.2081154 L17.7071068,15.2928932 L21,18.585 L27.584,12 L26,12 C25.4871642,12 25.0644928,11.6139598 25.0067277,11.1166211 L25,11 C25,10.4871642 25.3860402,10.0644928 25.8833789,10.0067277 L26,10 L31,10 Z" id="🌈--Icon-color" fill="#002D63"></path>
    </g>
</svg>