<?xml version="1.0" encoding="UTF-8"?>
<svg width="36px" height="36px" viewBox="0 0 36 36" version="1.1" xmlns="http://www.w3.org/2000/svg" xmlns:xlink="http://www.w3.org/1999/xlink" id="reserveGrey">
    <title>03 Large: 36px / Hero / Card</title>
    <g id="03-Large:-36px-/-Hero-/-Card" stroke="none" stroke-width="1" fill="none" fill-rule="evenodd">
        <polygon id="Path" points="0 0 36 0 36 36 0 36"></polygon>
        <path d="M27.5,6 C30.5375661,6 33,8.46243388 33,11.5 L33,11.5 L33,24.5 C33,27.5375661 30.5375661,30 27.5,30 L27.5,30 L8.5,30 C5.46243388,30 3,27.5375661 3,24.5 L3,24.5 L3,11.5 C3,8.46243388 5.46243388,6 8.5,6 L8.5,6 Z M31,15 L5,15 L5,24.5 C5,26.4329966 6.56700338,28 8.5,28 L8.5,28 L27.5,28 C29.4329966,28 31,26.4329966 31,24.5 L31,24.5 L31,15 Z M27.5,8 L8.5,8 C6.56700338,8 5,9.56700338 5,11.5 L5,11.5 L5,13 L31,13 L31,11.5 C31,9.56700338 29.4329966,8 27.5,8 L27.5,8 Z" id="Combined-Shape" fill="#EEEEEE"></path>
        <path d="M10.5,22 C11.0522847,22 11.5,22.4477153 11.5,23 C11.5,23.5128358 11.1139598,23.9355072 10.6166211,23.9932723 L10.5,24 L10,24 C9.44771525,24 9,23.5522847 9,23 C9,22.4871642 9.38604019,22.0644928 9.88337887,22.0067277 L10,22 L10.5,22 Z M20,22 C20.5522847,22 21,22.4477153 21,23 C21,23.5128358 20.6139598,23.9355072 20.1166211,23.9932723 L20,24 L16,24 C15.4477153,24 15,23.5522847 15,23 C15,22.4871642 15.3860402,22.0644928 15.8833789,22.0067277 L16,22 L20,22 Z" id="Combined-Shape" fill="#EEEEEE"></path>
    </g>
</svg>