<?xml version="1.0" encoding="UTF-8"?>
<svg width="36px" height="36px" viewBox="0 0 36 36" version="1.1" xmlns="http://www.w3.org/2000/svg" xmlns:xlink="http://www.w3.org/1999/xlink" id="LifeBAGrey">
    <title>03 Large: 36px/Mono/Product/Life Health Insurance</title>
    <g id="03-Large:-36px/Mono/Product/Life-Health-Insurance" stroke="none" stroke-width="1" fill="none" fill-rule="evenodd">
        <polygon id="Path" points="0 0 36 0 36 36 0 36"></polygon>
        <path d="M25.5,18.0231711 C27.4329966,18.0231711 29,19.587581 29,21.5173784 C29,22.7412651 28.3697266,23.8181872 27.4155421,24.4422896 C29.5393507,25.4312125 31,28.0250055 31,31.0016551 C31,31.5136421 30.6139598,31.9356139 30.1166211,31.9932834 L30,32 L21,32 C20.4477153,32 20,31.5530258 20,31.0016551 C20,28.0250055 21.4606493,25.4312125 23.5843287,24.4410308 C22.6302734,23.8181872 22,22.7412651 22,21.5173784 C22,19.587581 23.5670034,18.0231711 25.5,18.0231711 Z M25.5,26.0099305 C23.9680036,26.0099305 22.585593,27.4902208 22.1453926,29.5815827 L22.1018697,29.8079559 L22.07,30.0033102 L28.929,30.0033102 L28.8981303,29.8079559 C28.5395233,27.7502655 27.278483,26.2319124 25.8257065,26.0322712 L25.663534,26.0155553 L25.5,26.0099305 Z M16.5,16.3048659 C17.0128358,16.3048659 17.4355072,16.6902672 17.4932723,17.1867827 L17.5,17.3032109 L17.5,24.6716319 C17.5,26.0688241 16.3137171,27.1714664 14.8846154,27.1714664 C13.4555137,27.1714664 12.2692308,26.0688241 12.2692308,24.6716319 C12.2692308,24.1202612 12.716946,23.673287 13.2692308,23.673287 C13.7820666,23.673287 14.2047379,24.0586883 14.262503,24.5552038 L14.2692308,24.6716319 C14.2692308,24.9329393 14.5294125,25.1747766 14.8846154,25.1747766 C15.204298,25.1747766 15.4470134,24.9788884 15.4923597,24.7492177 L15.5,24.6716319 L15.5,17.3032109 C15.5,16.7518402 15.9477153,16.3048659 16.5,16.3048659 Z M25.5,20.019861 C24.6715729,20.019861 24,20.6903223 24,21.5173784 C24,22.3444344 24.6715729,23.0148957 25.5,23.0148957 C26.3284271,23.0148957 27,22.3444344 27,21.5173784 C27,20.6903223 26.3284271,20.019861 25.5,20.019861 Z M16.5,3 C17.0128358,3 17.4355072,3.38540126 17.4932723,3.88191681 L17.5,3.99834492 L17.5,4.40152267 C17.5,4.64598929 17.4119856,4.86993306 17.2658661,5.0434942 C23.1927436,5.43523843 27.8962836,10.3170644 27.9838568,16.3275332 C27.9966304,17.2133309 26.9334251,17.6758124 26.2923846,17.0632527 C25.5037063,16.3096146 24.4645109,15.8824892 23.3573077,15.8824892 C22.3238391,15.8824892 21.3497641,16.2541387 20.5791671,16.9202092 C20.2034287,17.2449811 19.6458021,17.2449811 19.2700636,16.9202092 C18.4994667,16.2541387 17.5253916,15.8824892 16.4919231,15.8824892 C15.4584545,15.8824892 14.4843795,16.2541387 13.7137825,16.9202092 C13.3380441,17.2449811 12.7804175,17.2449811 12.404679,16.9202092 C11.6340821,16.2541387 10.660007,15.8824892 9.62653846,15.8824892 C8.51933524,15.8824892 7.48013987,16.3096146 6.69146154,17.0632527 C6.05042101,17.6758124 4.98721574,17.2133309 4.99998939,16.3275332 C5.0876364,10.3119971 9.79903668,5.42700773 15.7328568,5.04053041 C15.611172,4.89704566 15.5298121,4.71637069 15.5067277,4.51795078 L15.5,4.40152267 L15.5,3.99834492 C15.5,3.44697425 15.9477153,3 16.5,3 Z M16.4919231,7.01257862 C12.123517,7.01257862 8.43999663,9.96058562 7.3363312,13.9807249 L7.26803013,14.2444087 L7.241,14.3592453 L7.42003488,14.2881685 C7.9266101,14.0964923 8.4600299,13.9704107 9.00898904,13.916176 L9.34013881,13.8923069 L9.62653846,13.8857994 C10.7588392,13.8857994 11.8450261,14.1899692 12.7924554,14.7486779 L13.0473353,14.9073266 L13.059,14.9143251 L13.3278133,14.7476126 C14.1085487,14.2875574 14.9834352,14.0003087 15.900659,13.9136243 L16.2078973,13.8921959 L16.4919231,13.8857994 C17.6242238,13.8857994 18.7104107,14.1899692 19.65784,14.7486779 L19.9127199,14.9073266 L19.924,14.9143251 L20.1931979,14.7476126 C20.9739334,14.2875574 21.8488199,14.0003087 22.7660437,13.9136243 L23.0732819,13.8921959 L23.3573077,13.8857994 C24.0143509,13.8857994 24.6557238,13.9882884 25.2630629,14.1831102 L25.5638113,14.2881685 L25.742,14.3602436 L25.715816,14.2444087 C24.7458887,10.2634006 21.2631782,7.27114327 17.0464625,7.02849098 L16.7642802,7.01640697 L16.4919231,7.01257862 Z" id="🌈--Icon-color" fill="#EEEEEE"></path>
    </g>
</svg>